<mxfile host="app.diagrams.net" modified="2023-06-26T07:55:48.738Z" agent="Mozilla/5.0 (Windows NT 10.0; Win64; x64) AppleWebKit/537.36 (KHTML, like Gecko) Chrome/114.0.0.0 Safari/537.36" version="21.5.0" etag="feLo4NEd8B1u4J6njTfn" type="github">
  <diagram name="페이지-1" id="biet6me7gljf0FfzOJUs">
    <mxGraphModel>
      <root>
        <mxCell id="0" />
        <mxCell id="1" parent="0" />
      </root>
    </mxGraphModel>
  </diagram>
</mxfile>
